<?xml version="1.0" standalone="no"?>
<!DOCTYPE svg PUBLIC "-//W3C//DTD SVG 20010904//EN"
 "http://www.w3.org/TR/2001/REC-SVG-20010904/DTD/svg10.dtd">
<svg version="1.0" xmlns="http://www.w3.org/2000/svg"
 width="1555.000000pt" height="1555.000000pt" viewBox="0 0 1555.000000 1555.000000"
 preserveAspectRatio="xMidYMid meet">
<metadata>
Created by potrace 1.14, written by Peter Selinger 2001-2017
</metadata>
<g transform="translate(0.000000,1555.000000) scale(0.100000,-0.100000)"
fill="#000000" stroke="none">
<path d="M6821 15040 c-5 -3 -12 -50 -16 -104 -4 -55 -8 -109 -10 -120 -3 -19
-8 -76 -21 -216 -2 -30 -7 -73 -9 -95 -2 -22 -7 -76 -11 -120 -3 -44 -7 -94
-9 -110 -2 -17 -7 -68 -10 -115 -4 -47 -10 -88 -14 -91 -3 -3 -80 -23 -171
-43 -91 -21 -185 -44 -210 -51 -231 -70 -304 -94 -431 -140 -80 -29 -206 -80
-281 -113 l-137 -60 -318 368 c-189 220 -322 366 -328 361 -5 -4 -215 -159
-465 -343 -798 -587 -1055 -779 -1058 -786 -2 -6 271 -485 337 -592 5 -8 39
-66 76 -128 l66 -114 -68 -75 c-237 -265 -443 -545 -625 -848 -42 -71 -81
-136 -85 -143 -6 -10 -102 8 -448 87 -242 55 -449 103 -461 105 -18 5 -23 -4
-43 -67 -51 -164 -466 -1463 -511 -1602 -28 -82 -47 -152 -42 -156 4 -3 195
-88 424 -189 230 -100 419 -187 421 -193 2 -6 0 -36 -4 -66 -16 -127 -19 -163
-26 -316 -11 -251 -5 -674 11 -761 2 -11 7 -59 11 -109 4 -49 9 -93 11 -96 2
-3 -190 -91 -427 -194 -243 -107 -428 -193 -426 -199 6 -16 64 -196 97 -301
15 -49 69 -218 120 -375 50 -157 122 -382 160 -500 161 -507 202 -635 205
-638 2 -2 135 26 297 63 161 37 359 82 440 100 81 19 156 36 166 39 14 5 27
-10 62 -71 169 -299 452 -687 688 -946 l53 -58 -19 -33 c-11 -18 -120 -206
-243 -416 l-223 -384 30 -23 c16 -13 182 -136 369 -274 359 -265 661 -488 956
-706 99 -73 181 -133 183 -133 3 0 75 82 491 565 76 88 142 161 146 163 4 2
45 -13 91 -33 362 -160 690 -265 1124 -360 20 -4 22 -15 33 -157 7 -84 14
-166 17 -183 4 -36 42 -440 50 -545 3 -41 7 -81 9 -87 4 -10 203 -13 954 -13
522 0 952 3 954 8 3 4 8 45 11 92 4 47 11 126 16 175 5 50 12 122 15 160 3 39
8 88 10 110 3 22 8 72 10 110 3 39 7 86 10 105 2 19 7 76 11 125 3 50 8 91 9
93 2 2 70 19 152 37 339 78 666 187 991 330 46 20 87 35 91 33 4 -2 139 -156
301 -343 161 -187 303 -351 315 -363 l22 -24 174 129 c95 70 248 183 339 251
91 67 345 255 565 417 220 162 413 306 429 318 l30 24 -119 204 c-65 112 -147
251 -181 309 -179 304 -184 314 -171 331 7 9 51 61 100 116 230 262 465 592
652 916 l20 35 255 -59 c533 -122 661 -151 664 -147 2 1 65 197 141 433 75
237 156 491 180 565 24 74 76 236 115 360 39 124 89 279 111 344 21 66 38 121
36 122 -3 3 -661 293 -774 341 -46 19 -81 38 -79 42 2 3 7 47 11 96 4 50 9 98
11 108 16 86 23 592 10 797 -8 132 -26 321 -31 338 -5 15 -11 12 485 229 195
85 358 158 362 162 3 3 -32 125 -79 271 -47 146 -98 306 -113 355 -16 50 -70
218 -120 375 -50 157 -130 407 -177 555 -47 149 -87 271 -88 272 -1 2 -71 -13
-156 -33 -85 -20 -210 -49 -279 -64 -69 -16 -206 -47 -305 -70 -142 -32 -182
-38 -188 -28 -4 7 -37 63 -73 123 -164 275 -384 579 -588 812 l-116 133 67
115 c38 64 76 130 87 148 10 18 85 147 166 287 82 140 151 262 155 270 4 11
-25 38 -97 91 -57 42 -380 280 -718 530 -338 250 -638 471 -665 491 l-50 36
-260 -300 c-143 -166 -265 -306 -270 -312 -6 -6 -32 -36 -58 -67 l-47 -57
-128 55 c-70 30 -136 59 -147 64 -138 63 -548 191 -785 245 -91 20 -168 40
-171 43 -4 3 -10 44 -14 91 -3 47 -8 99 -10 115 -2 17 -7 64 -10 105 -5 68 -8
98 -20 225 -5 56 -15 158 -28 310 l-12 130 -948 0 c-521 1 -951 -2 -956 -5z
m1703 -217 c2 -10 7 -61 11 -113 3 -52 8 -102 10 -110 2 -8 6 -58 10 -110 3
-52 8 -102 10 -110 2 -8 6 -53 10 -100 9 -125 34 -383 37 -385 2 -1 84 -18
183 -38 431 -86 924 -256 1286 -443 26 -13 28 -11 126 104 55 64 116 135 135
157 129 148 262 302 313 363 33 39 62 71 65 71 3 0 178 -128 390 -284 212
-157 483 -357 602 -445 120 -89 220 -165 223 -170 3 -4 -25 -59 -61 -122 -37
-62 -90 -153 -119 -203 -28 -49 -102 -176 -163 -282 -62 -105 -112 -196 -112
-203 0 -6 10 -21 23 -33 13 -12 69 -73 125 -135 282 -312 535 -670 727 -1027
27 -49 49 -91 49 -92 1 -1 62 12 136 28 74 17 142 32 150 34 8 2 147 34 308
70 161 37 294 66 296 64 2 -2 43 -128 91 -279 88 -280 129 -408 215 -675 138
-426 162 -507 153 -516 -4 -4 -123 -58 -263 -119 -140 -61 -273 -119 -295
-129 -22 -10 -88 -40 -147 -66 -60 -26 -108 -54 -108 -61 0 -7 7 -64 15 -126
54 -422 54 -902 -1 -1331 -10 -75 -13 -132 -8 -137 5 -5 189 -88 409 -184 220
-96 401 -179 403 -184 1 -5 -36 -130 -84 -278 -47 -148 -101 -316 -119 -374
-88 -278 -258 -806 -261 -811 -2 -3 -184 36 -406 88 -222 51 -421 96 -443 99
-45 6 -34 19 -115 -131 -182 -335 -453 -710 -746 -1030 l-110 -120 163 -280
c90 -154 169 -290 176 -302 7 -12 39 -68 71 -123 33 -57 55 -105 50 -109 -5
-5 -126 -94 -269 -199 -143 -106 -413 -305 -600 -443 -227 -168 -343 -248
-351 -243 -7 5 -119 133 -250 284 -130 151 -260 301 -288 334 -28 32 -52 62
-54 67 -2 5 -8 9 -12 9 -9 0 -142 -59 -190 -85 -103 -54 -447 -185 -641 -244
-209 -63 -471 -126 -609 -146 -25 -4 -49 -10 -53 -14 -5 -5 -15 -80 -23 -167
-7 -88 -16 -179 -19 -204 -5 -55 -21 -221 -36 -395 -14 -165 -14 -163 -22
-171 -8 -8 -615 -9 -623 -1 -3 3 7 27 21 54 15 26 54 98 86 158 32 61 119 223
193 360 73 138 132 252 129 255 -2 3 -102 5 -221 5 l-217 1 -3 272 c-1 150 1
272 5 273 50 5 123 42 147 76 27 36 32 111 12 155 -22 46 -75 74 -185 98 -105
22 -131 34 -131 58 0 37 42 62 104 62 37 0 86 -33 86 -57 0 -11 8 -13 38 -9
20 3 45 5 55 6 23 0 22 34 -3 75 -20 33 -73 65 -110 68 -19 1 -20 9 -20 114 0
62 3 113 8 114 31 4 81 7 163 13 715 46 1449 323 2044 771 314 237 615 547
846 870 373 523 622 1136 713 1755 15 103 18 130 36 315 8 91 5 601 -4 665 -3
19 -13 91 -21 160 -163 1319 -995 2497 -2181 3089 -383 191 -841 330 -1239
376 -27 3 -68 7 -90 10 -108 13 -197 16 -385 16 -113 0 -225 -2 -250 -5 -25
-3 -81 -8 -125 -11 -105 -8 -363 -50 -495 -81 -927 -217 -1742 -769 -2310
-1564 -421 -590 -685 -1320 -738 -2044 -11 -158 -8 -579 6 -711 100 -945 500
-1798 1152 -2456 590 -597 1279 -958 2125 -1114 117 -22 322 -41 525 -51 74
-3 136 -7 137 -8 4 -3 5 -49 4 -132 l-1 -91 -37 -7 c-57 -9 -101 -41 -124 -90
-45 -91 1 -161 129 -194 42 -11 94 -23 115 -27 24 -4 43 -15 53 -30 15 -23 15
-27 0 -50 -23 -34 -49 -46 -107 -47 -59 0 -97 21 -113 64 -10 27 -14 29 -51
24 -22 -3 -46 -5 -52 -5 -22 -1 -14 -45 14 -89 30 -45 74 -71 134 -79 38 -5
39 -7 40 -47 1 -121 -2 -490 -5 -493 -3 -3 -383 -13 -485 -13 -51 1 -62 -2
-58 -14 3 -8 63 -101 133 -208 345 -523 395 -601 389 -606 -3 -3 -172 -5 -376
-5 -302 1 -373 3 -380 14 -5 8 -9 34 -10 59 0 25 -2 56 -4 70 -4 21 -21 207
-41 440 -3 36 -7 75 -9 87 -2 13 -7 68 -11 124 -10 154 -9 152 -85 166 -35 7
-80 15 -99 18 -80 14 -404 96 -523 134 -240 75 -489 174 -707 280 -88 42 -106
48 -112 32 -1 -5 -53 -67 -115 -138 -231 -266 -390 -450 -432 -500 -24 -29
-48 -53 -52 -53 -16 0 -1214 893 -1213 905 1 10 127 230 399 695 l62 106 -75
79 c-301 322 -595 725 -793 1090 -24 44 -49 89 -55 99 -14 23 3 26 -514 -93
-190 -43 -354 -80 -364 -82 -21 -4 -13 -27 -246 701 -43 135 -113 352 -155
484 -42 131 -77 249 -78 262 -2 23 26 36 403 202 l405 178 -1 40 c0 21 -3 62
-7 89 -3 28 -9 77 -12 110 -4 33 -8 74 -10 90 -18 135 -24 531 -12 775 7 153
9 175 32 363 8 66 15 124 15 131 0 15 32 0 -430 203 -206 90 -379 168 -384
173 -4 4 85 299 202 667 116 362 221 691 233 731 13 39 28 72 33 72 6 0 205
-45 441 -100 397 -91 431 -97 443 -82 7 9 53 87 101 172 185 329 430 667 679
939 138 151 151 166 142 176 -7 8 -65 107 -130 220 -34 60 -130 224 -230 395
l-102 175 36 29 c32 26 507 378 1009 747 98 72 179 130 181 128 5 -8 192 -226
222 -259 18 -19 111 -127 209 -240 97 -113 181 -204 185 -203 5 2 66 30 137
64 356 169 773 307 1168 386 99 20 181 37 182 38 2 1 7 48 13 106 5 57 12 124
15 149 2 25 7 81 10 125 3 44 7 94 10 110 2 17 7 66 10 110 3 44 8 91 10 105
3 14 7 64 11 113 5 73 9 110 13 125 1 1 338 2 750 2 705 0 750 -1 755 -17z
m-404 -2226 c14 -3 52 -8 85 -12 33 -3 116 -15 185 -26 631 -104 1240 -378
1749 -788 596 -479 1036 -1115 1277 -1846 139 -422 197 -792 199 -1260 0 -174
-13 -396 -30 -500 -3 -16 -7 -52 -11 -80 -9 -84 -53 -292 -90 -435 -138 -526
-386 -1022 -730 -1456 -88 -112 -213 -254 -223 -254 -4 0 -19 25 -34 55 l-26
54 41 35 41 35 -18 53 c-20 61 -62 147 -99 201 -14 21 -26 42 -26 47 0 4 -3
10 -7 12 -5 2 -28 27 -52 56 l-44 53 33 34 c36 37 38 26 -29 130 -72 111 -221
274 -318 348 -29 22 -53 41 -53 44 0 2 14 24 30 48 17 24 30 48 30 53 0 15
-149 147 -248 220 -48 35 -89 66 -92 69 -3 3 92 99 210 213 118 115 215 208
216 207 1 -1 4 -87 7 -190 2 -103 6 -189 8 -191 5 -5 920 897 919 907 0 4 -5
7 -11 7 -8 0 -512 -411 -539 -440 -18 -19 -111 -92 -114 -89 -2 2 -6 98 -10
213 -4 116 -8 211 -9 212 -1 1 -65 -72 -142 -164 -77 -91 -183 -216 -235 -277
-52 -62 -147 -173 -210 -248 -63 -76 -118 -137 -123 -137 -4 0 -44 20 -87 45
-44 25 -122 64 -173 86 -50 22 -96 44 -100 48 -4 5 0 25 10 45 17 36 17 39 0
51 -9 7 -17 15 -17 19 0 4 49 76 108 159 59 84 161 228 227 320 74 104 121
163 126 155 3 -7 25 -83 49 -168 23 -85 45 -158 48 -162 4 -4 73 84 153 195
80 111 293 405 472 654 180 248 327 454 327 458 0 4 -6 5 -14 3 -12 -3 -83
-83 -247 -278 -314 -374 -482 -571 -485 -568 -2 2 -22 96 -44 208 -22 112 -42
205 -44 207 -2 2 -22 -29 -46 -69 -23 -40 -52 -89 -65 -108 -12 -19 -58 -96
-102 -170 -352 -596 -496 -831 -506 -826 -139 60 -263 111 -332 135 -48 17
-93 35 -100 39 -9 5 7 47 61 157 64 132 149 310 261 542 19 40 38 73 41 73 4
0 52 -74 108 -165 l100 -164 60 112 c32 61 79 150 105 197 25 47 74 139 108
205 35 66 71 134 81 150 9 17 45 84 80 150 61 116 168 317 235 440 18 33 54
101 80 150 26 50 74 141 108 204 57 108 59 115 42 127 -10 8 -21 14 -24 14 -5
-1 -637 -986 -758 -1182 -27 -43 -51 -77 -55 -78 -4 0 -53 56 -109 125 -56 69
-104 125 -108 125 -3 0 -109 -257 -235 -569 -126 -313 -232 -575 -236 -581 -5
-8 -53 2 -161 33 -85 25 -166 47 -181 51 -27 6 -28 9 -28 67 l0 61 -437 -5
c-241 -4 -490 -6 -554 -7 l-115 0 7 -57 c3 -32 6 -59 5 -59 -1 -1 -59 -14
-131 -29 -113 -24 -258 -64 -387 -106 -21 -7 -39 -10 -41 -8 -2 2 -106 258
-231 569 -125 311 -231 568 -234 572 -4 3 -54 -52 -111 -123 -58 -71 -108
-126 -112 -122 -4 5 -80 123 -170 263 -89 140 -223 350 -297 465 -74 116 -179
281 -234 368 -55 86 -106 157 -113 157 -7 0 -18 -6 -24 -14 -9 -11 2 -39 52
-132 35 -66 88 -164 117 -219 29 -55 65 -122 80 -150 15 -27 50 -93 77 -145
51 -96 343 -646 413 -775 20 -38 65 -123 100 -187 34 -65 63 -118 65 -118 1 0
44 69 95 153 51 83 98 158 105 165 11 13 26 -15 228 -438 41 -85 90 -189 110
-230 20 -41 33 -78 29 -82 -4 -4 -43 -22 -87 -41 -44 -19 -104 -46 -133 -61
l-52 -26 21 -41 c11 -23 19 -42 17 -43 -2 -2 -35 -19 -73 -38 l-70 -36 -126
212 c-69 116 -225 376 -345 579 -120 202 -221 367 -225 367 -3 0 -23 -89 -44
-197 -21 -109 -41 -202 -45 -206 -4 -5 -81 78 -170 185 -89 106 -181 216 -205
243 -23 28 -111 131 -194 230 -138 164 -169 195 -172 172 0 -5 169 -243 377
-530 207 -287 418 -579 468 -649 50 -70 94 -128 97 -128 4 0 29 79 56 176 l49
177 219 -309 c120 -170 222 -314 227 -320 6 -8 -26 -33 -100 -77 -59 -36 -146
-91 -193 -124 -46 -32 -89 -62 -95 -66 -7 -4 -60 50 -135 139 -68 81 -136 161
-151 178 -14 17 -94 112 -178 211 -84 99 -165 195 -181 214 -16 19 -31 32 -33
30 -2 -2 -6 -98 -9 -212 -3 -115 -7 -210 -9 -212 -1 -1 -149 119 -326 267
-202 169 -327 267 -333 261 -6 -6 162 -179 447 -459 251 -247 460 -450 465
-452 5 -2 10 70 10 165 1 92 1 178 2 191 0 12 3 22 6 22 3 0 92 -84 196 -185
l190 -185 -39 -34 -39 -34 36 -43 c21 -24 36 -46 35 -49 -2 -4 -34 -33 -73
-65 -81 -67 -268 -253 -343 -340 l-51 -60 46 -47 47 -47 -42 -50 c-72 -85
-173 -242 -226 -350 l-50 -103 26 -23 c15 -13 37 -30 48 -38 l22 -15 -30 -79
c-17 -43 -36 -98 -42 -123 l-12 -45 -116 120 c-167 174 -388 457 -487 626
-241 408 -373 716 -475 1114 -92 357 -128 661 -124 1045 1 118 5 240 8 270 3
30 11 98 17 150 36 335 136 722 271 1055 102 249 298 601 463 827 217 297 507
592 806 820 516 392 1157 657 1774 734 22 3 45 7 52 9 7 2 61 7 120 11 59 3
110 8 113 11 6 6 538 -4 570 -10z m140 -4491 c0 -14 -4 -26 -9 -26 -9 0 -16
-34 -26 -120 -2 -25 -11 -106 -20 -180 -8 -74 -17 -155 -20 -180 -31 -282 -47
-415 -49 -417 -2 -2 -38 1 -82 6 -94 11 -412 12 -504 1 -36 -4 -67 -6 -69 -4
-2 2 -9 65 -17 141 -7 76 -16 158 -18 183 -3 25 -10 97 -16 160 -26 276 -41
395 -50 398 -6 2 -10 14 -10 28 0 23 1 23 113 26 61 2 262 4 445 6 l332 4 0
-26z m-987 -178 c11 -119 47 -490 52 -528 2 -19 7 -66 10 -105 3 -38 8 -84 11
-100 l5 -31 -101 -22 c-55 -13 -149 -39 -208 -57 -59 -19 -112 -35 -119 -35
-9 0 -151 257 -338 615 -20 39 -44 76 -53 82 -8 7 -14 15 -11 17 25 23 241
107 384 151 80 24 322 82 351 84 7 1 14 -28 17 -71z m1242 38 c202 -58 611
-209 638 -235 10 -10 -2 -41 -17 -41 -7 0 -30 -37 -51 -82 -21 -46 -71 -150
-110 -233 -39 -82 -91 -193 -115 -246 -62 -137 -58 -133 -112 -110 -76 32
-267 92 -373 116 l-100 22 1 34 c1 46 28 296 78 729 3 25 5 53 5 63 1 24 20
22 156 -17z m-2029 -394 c17 -31 59 -111 94 -177 34 -66 70 -133 80 -150 34
-58 130 -244 130 -250 0 -3 -16 -13 -36 -21 -55 -23 -211 -111 -291 -164 l-72
-47 -103 106 c-313 324 -359 371 -367 371 -4 0 -16 8 -25 19 -16 17 -16 19 6
24 12 4 19 9 15 13 -15 16 230 175 438 286 50 26 92 48 95 48 3 0 19 -26 36
-58z m2882 -43 c178 -84 347 -195 461 -304 43 -42 43 -42 26 -68 -9 -14 -23
-27 -30 -29 -8 -2 -63 -61 -122 -133 -60 -71 -116 -139 -125 -150 -9 -11 -51
-62 -93 -112 -42 -51 -79 -93 -82 -93 -2 0 -30 19 -61 43 -93 71 -201 141
-312 202 -58 32 -106 59 -108 60 -1 1 20 50 48 109 28 59 81 173 119 254 140
299 131 283 155 276 11 -3 67 -28 124 -55z m-3408 -506 c45 -49 136 -143 201
-209 66 -67 119 -126 119 -130 -1 -5 -21 -25 -46 -44 -25 -19 -99 -90 -163
-157 l-118 -121 -203 164 c-111 90 -207 164 -213 164 -6 0 -22 12 -34 27 l-23
27 37 40 c126 136 331 326 352 326 4 0 45 -39 91 -87z m2201 53 c579 -93 1094
-371 1454 -786 180 -208 308 -415 416 -675 l38 -90 -32 -28 c-56 -49 -258
-182 -392 -259 -392 -224 -814 -377 -1237 -447 -154 -26 -183 -30 -368 -47
-87 -8 -469 -8 -551 0 -261 26 -425 53 -624 103 -172 42 -297 82 -470 150
-248 97 -481 219 -703 366 -104 69 -121 84 -116 101 41 137 167 406 262 559
127 206 333 441 507 579 277 220 599 372 946 446 92 20 119 25 257 42 102 13
502 4 613 -14z m1885 -210 c55 -56 122 -132 149 -170 52 -74 53 -89 4 -113
-13 -6 -109 -86 -213 -177 -104 -91 -192 -166 -195 -166 -3 0 -19 18 -34 41
-16 22 -78 91 -138 153 -60 63 -109 117 -109 120 0 4 84 108 187 231 l187 224
30 -22 c17 -11 76 -66 132 -121z m-4501 -341 c52 -41 319 -256 324 -261 2 -2
-30 -54 -71 -116 -41 -62 -88 -137 -104 -165 -16 -29 -32 -53 -36 -53 -4 0
-80 43 -168 95 -88 52 -165 95 -171 95 -22 0 -69 35 -69 51 0 23 62 138 117
218 62 89 127 170 134 168 3 -1 23 -15 44 -32z m4726 -97 c41 -46 130 -188
146 -232 16 -43 16 -46 -2 -66 -10 -11 -23 -19 -30 -18 -6 2 -82 -55 -168
-125 -86 -70 -163 -130 -169 -132 -8 -3 -31 28 -58 77 -25 45 -62 109 -83 141
l-38 60 47 41 c26 23 108 94 182 159 73 64 138 117 144 117 5 0 19 -10 29 -22z
m-4808 -536 c70 -41 129 -77 132 -81 6 -11 -108 -291 -119 -291 -22 0 -203
170 -242 227 -17 24 -16 32 33 170 23 69 26 72 46 61 12 -6 79 -44 150 -86z
m4945 -79 c-74 -78 -250 -225 -257 -216 -14 16 -53 124 -48 130 4 3 71 58 149
123 l143 117 28 -55 29 -55 -44 -44z m-2274 -2672 c-77 -146 -189 -354 -247
-460 l-40 -74 -15 29 c-9 16 -17 45 -19 64 -10 115 -43 525 -43 544 l0 23 215
0 215 0 -66 -126z"/>
<path d="M7567 13784 c-2 -2 -143 -12 -262 -19 -49 -3 -105 -8 -122 -11 -33
-5 -33 -6 -33 -60 l0 -55 100 7 100 6 1 -43 c1 -24 3 -53 4 -64 2 -11 6 -78
10 -150 4 -71 9 -133 11 -136 1 -3 4 -40 5 -83 l2 -77 66 3 66 3 -2 50 c-3 69
-22 366 -29 443 -3 40 -2 62 5 63 6 1 16 3 21 4 6 1 39 3 74 4 80 1 93 12 88
75 l-4 46 -50 -2 c-27 -2 -50 -4 -51 -4z"/>
<path d="M7843 13778 c0 -28 -14 -255 -18 -293 -2 -22 -7 -85 -10 -140 -4 -55
-8 -128 -11 -162 -4 -60 -3 -63 18 -64 30 0 128 -7 208 -13 36 -3 111 -9 168
-12 l102 -7 1 29 c0 16 2 41 4 55 3 26 2 27 -63 33 -37 3 -116 9 -177 12 -60
4 -114 9 -118 11 -4 3 -6 23 -3 46 2 23 5 64 5 90 l1 49 43 -6 c23 -3 94 -8
157 -12 63 -3 118 -8 123 -11 4 -2 7 -1 7 4 1 4 3 32 6 61 l6 52 -44 1 c-24 0
-50 2 -58 3 -8 2 -59 6 -114 10 -54 3 -102 9 -107 11 -4 3 -7 22 -5 43 2 20 4
52 5 70 l1 32 93 -6 c50 -3 129 -9 174 -13 54 -4 84 -3 86 4 2 5 5 31 6 58 l3
47 -39 1 c-21 0 -45 2 -53 3 -15 3 -144 12 -306 22 -72 5 -91 3 -91 -8z"/>
<path d="M6886 13706 c-27 -7 -51 -17 -54 -24 -2 -7 11 -74 28 -150 62 -267
70 -322 55 -358 -29 -70 -157 -94 -211 -40 -22 22 -32 57 -75 246 -22 96 -45
192 -50 213 -11 42 -5 41 -100 16 l-36 -9 17 -77 c53 -238 92 -391 111 -430
43 -88 130 -125 246 -104 169 31 237 94 237 221 0 75 -93 511 -109 509 -5 -1
-32 -7 -59 -13z"/>
<path d="M6180 13523 c-47 -19 -150 -59 -230 -90 -80 -31 -149 -60 -154 -64
-5 -5 -1 -29 10 -57 l19 -50 75 29 c41 16 82 32 91 34 13 5 35 -44 114 -254
l97 -259 59 22 c32 11 59 26 59 32 0 6 -40 119 -89 250 -50 132 -91 245 -93
252 -2 8 29 26 81 47 46 19 86 36 87 38 5 5 -26 96 -34 100 -4 2 -45 -11 -92
-30z"/>
<path d="M9227 13528 c-121 -25 -216 -132 -250 -283 -40 -176 34 -326 189
-385 153 -57 293 -17 373 108 49 78 73 156 74 248 1 69 -3 89 -26 137 -32 65
-81 111 -152 143 -62 28 -156 43 -208 32z m181 -150 c21 -14 47 -43 57 -64 42
-89 -11 -271 -96 -330 -87 -60 -208 -24 -251 73 -45 101 10 274 106 334 44 28
130 22 184 -13z"/>
<path d="M5603 13272 c-29 -14 -53 -31 -53 -38 0 -6 27 -66 60 -133 33 -67 60
-123 60 -125 0 -2 36 -78 80 -169 l79 -166 28 12 c15 7 42 20 60 30 l32 17
-63 132 c-35 73 -98 204 -140 292 -42 87 -76 162 -76 167 0 13 -10 11 -67 -19z"/>
<path d="M9856 13268 c-8 -18 -53 -114 -101 -213 -91 -188 -165 -345 -165
-351 0 -6 98 -54 110 -54 5 0 37 56 69 125 l59 125 122 -61 c67 -33 123 -59
125 -57 5 6 45 87 45 93 0 2 -54 32 -120 65 -66 33 -120 62 -120 65 0 10 65
135 70 135 3 0 64 -29 135 -65 70 -36 134 -65 140 -65 7 0 22 21 33 48 l21 47
-90 45 c-240 120 -301 150 -310 150 -5 0 -15 -15 -23 -32z"/>
<path d="M5210 13059 c-118 -67 -219 -125 -223 -129 -9 -8 25 -84 41 -94 5 -3
44 15 87 40 75 43 80 44 93 27 7 -10 67 -118 134 -240 66 -123 123 -223 127
-223 3 0 30 14 59 31 l53 30 -34 62 c-19 34 -54 98 -77 142 -24 44 -67 124
-97 178 -29 54 -51 102 -48 107 3 4 39 27 80 49 41 23 75 44 75 48 0 13 -42
93 -49 93 -4 0 -103 -55 -221 -121z"/>
<path d="M4712 12707 c-100 -52 -176 -136 -187 -210 -14 -86 42 -175 125 -197
55 -15 93 -8 210 41 52 22 107 41 123 41 40 2 67 -28 67 -74 0 -32 -7 -46 -44
-83 -58 -58 -102 -67 -163 -35 -49 26 -36 30 -113 -39 l-25 -23 38 -33 c46
-40 118 -60 179 -50 79 13 211 122 244 200 29 70 11 161 -44 218 -69 73 -137
76 -292 12 -117 -48 -150 -54 -174 -29 -31 31 -9 85 52 128 46 31 89 36 122
13 22 -15 25 -14 72 24 26 23 48 45 48 50 0 5 -21 23 -47 39 -59 38 -127 40
-191 7z"/>
<path d="M10845 12627 l-36 -42 33 -30 c18 -16 51 -45 72 -63 21 -18 36 -38
33 -45 -3 -7 -81 -104 -173 -216 l-168 -204 50 -44 49 -43 28 32 c16 18 94
113 174 211 80 97 149 177 152 177 4 0 39 -27 78 -59 l71 -60 19 22 c59 69 74
46 -134 223 -102 87 -192 165 -199 171 -10 10 -20 5 -49 -30z"/>
<path d="M4238 12286 l-37 -42 154 -154 c85 -84 155 -154 155 -155 0 -1 -111
24 -247 56 l-248 57 -42 -45 c-24 -26 -43 -49 -43 -53 0 -7 443 -444 462 -456
5 -4 28 13 49 37 l39 44 -145 145 c-80 80 -145 148 -145 151 0 3 107 -18 238
-47 l237 -53 43 42 c23 22 42 46 42 52 0 14 -452 465 -465 464 -6 0 -27 -20
-47 -43z"/>
<path d="M11290 12079 c-63 -56 -175 -156 -248 -221 l-133 -120 48 -56 c26
-32 50 -59 53 -62 3 -3 54 -62 114 -132 59 -71 111 -128 114 -128 4 0 24 16
45 35 l38 34 -71 83 c-39 46 -94 109 -121 141 l-51 57 53 48 c91 82 74 86 185
-45 55 -64 102 -120 105 -126 6 -9 89 49 89 62 0 4 -47 62 -105 131 l-106 125
51 48 c28 26 54 47 58 46 4 0 58 -61 121 -136 l114 -135 40 40 40 40 -143 169
c-79 92 -150 176 -159 186 -16 16 -23 12 -131 -84z"/>
<path d="M3757 11709 l-38 -50 27 -22 c16 -12 135 -102 266 -199 l238 -178 35
48 c19 26 35 52 35 58 0 11 -507 394 -522 394 -2 0 -21 -23 -41 -51z"/>
<path d="M11690 11517 c-191 -54 -319 -210 -303 -368 11 -108 108 -236 197
-260 38 -11 161 -8 172 4 3 3 -2 33 -12 67 l-17 62 -52 -7 c-60 -7 -93 3 -129
42 -36 39 -50 92 -36 144 21 77 157 182 252 195 120 17 213 -121 152 -225
l-19 -32 50 -43 49 -44 22 31 c70 105 50 244 -52 356 -64 71 -180 104 -274 78z"/>
<path d="M12139 10917 c-47 -23 -178 -87 -292 -141 -187 -90 -207 -101 -201
-120 11 -36 44 -96 53 -96 4 0 60 25 124 55 63 30 120 55 125 55 5 0 22 -28
37 -62 15 -35 39 -87 53 -116 14 -28 23 -54 21 -56 -2 -2 -58 -29 -124 -61
-66 -32 -122 -59 -124 -61 -4 -3 35 -109 44 -122 3 -3 118 50 291 133 76 37
176 85 222 106 45 21 82 42 82 47 0 15 -50 112 -58 112 -4 0 -54 -23 -111 -50
-57 -28 -108 -49 -113 -48 -11 4 -110 218 -105 231 1 5 53 33 115 62 l111 52
-29 61 c-16 34 -30 62 -32 61 -2 0 -41 -19 -89 -42z"/>
<path d="M3760 10644 c-36 -80 -68 -147 -72 -150 -7 -4 -51 15 -332 150 -87
42 -160 75 -160 74 -1 -2 -11 -24 -24 -51 -12 -26 -22 -53 -22 -61 0 -7 62
-42 138 -79 347 -166 434 -207 440 -207 8 0 192 402 192 418 0 8 -81 53 -92
52 -2 0 -32 -66 -68 -146z"/>
<path d="M3689 10236 c-2 -2 -49 -7 -104 -10 -55 -4 -113 -9 -130 -11 -16 -2
-61 -6 -100 -9 -156 -12 -231 -19 -255 -22 -14 -1 -41 -3 -60 -3 -36 -1 -36
-2 -57 -71 l-20 -71 261 -211 c143 -116 268 -217 277 -224 14 -13 18 -7 36 56
l21 70 -64 47 c-38 30 -61 54 -59 63 2 8 20 67 39 131 l36 116 58 2 c67 2 90
5 96 12 12 11 43 129 36 134 -4 2 -9 3 -11 1z m-308 -182 c-1 -11 -13 -49 -25
-86 l-21 -67 -98 76 c-54 41 -96 77 -94 79 2 2 48 7 103 10 54 4 100 8 102 9
12 11 36 -5 33 -21z"/>
<path d="M12203 10142 c-160 -48 -295 -90 -298 -94 -4 -3 1 -32 10 -63 14 -48
19 -55 36 -50 129 41 379 111 377 105 -3 -8 -32 -41 -224 -258 l-101 -114 17
-61 c18 -64 22 -68 75 -54 56 15 570 169 573 172 2 1 -4 28 -13 60 -20 67 6
67 -248 -9 -98 -29 -177 -50 -177 -47 1 10 21 34 107 128 152 166 223 248 223
256 0 5 -7 33 -16 63 -11 38 -20 54 -32 53 -9 0 -148 -40 -309 -87z"/>
<path d="M2845 9554 c-4 -31 -5 -58 -2 -60 3 -4 382 -62 415 -64 13 -1 -65
-38 -260 -125 -109 -48 -198 -90 -199 -94 0 -3 -2 -14 -4 -24 -2 -10 -5 -37
-7 -60 l-3 -41 320 -46 c218 -32 322 -43 326 -36 4 6 9 34 12 63 l6 51 -87 12
c-48 7 -94 14 -102 15 -8 2 -58 8 -110 15 -52 7 -98 16 -103 19 -4 4 93 52
215 107 l223 100 9 63 c10 74 8 76 -73 85 -31 4 -67 8 -81 11 -74 12 -451 65
-468 65 -16 0 -21 -9 -27 -56z"/>
<path d="M12293 9430 c-149 -49 -216 -144 -217 -305 0 -76 4 -99 25 -145 35
-74 67 -110 131 -145 45 -25 67 -30 146 -33 178 -8 301 59 351 193 19 50 22
75 19 146 -7 144 -73 243 -193 288 -66 25 -190 25 -262 1z m230 -134 c67 -24
100 -67 112 -144 20 -134 -85 -219 -260 -210 -120 6 -186 67 -187 177 0 84 44
141 134 172 63 22 148 24 201 5z"/>
<path d="M3002 8864 c-70 -18 -100 -35 -144 -79 -66 -66 -83 -115 -83 -235 1
-117 12 -153 66 -214 69 -79 145 -109 274 -108 202 1 323 116 331 312 4 88
-29 187 -80 239 -86 88 -229 122 -364 85z m237 -153 c57 -29 91 -86 91 -151 0
-124 -77 -191 -224 -192 -133 -1 -207 52 -222 162 -10 70 36 158 95 182 79 32
196 31 260 -1z"/>
<path d="M12109 8619 c0 -19 -2 -41 -3 -49 -2 -8 -6 -62 -10 -120 -3 -58 -9
-142 -12 -187 l-7 -83 29 -1 c16 0 36 -2 45 -4 37 -7 38 -3 54 205 1 19 3 57
4 84 l1 48 73 -6 c39 -3 108 -8 152 -11 44 -3 132 -10 195 -15 63 -4 116 -7
118 -6 1 2 5 33 9 70 l6 66 -39 1 c-21 0 -50 2 -64 4 -14 1 -81 6 -150 10 -69
4 -127 8 -130 10 -3 2 -65 6 -137 10 l-133 7 -1 -33z"/>
<path d="M3355 8113 c-16 -2 -95 -10 -175 -18 -80 -9 -158 -17 -175 -20 -16
-2 -65 -7 -109 -11 l-78 -7 6 -65 c4 -37 8 -68 10 -69 1 -1 42 2 92 7 49 6
109 12 134 15 25 2 70 7 100 10 30 3 66 8 80 10 14 2 59 7 101 11 41 3 91 9
110 13 36 7 38 14 24 86 -2 11 -4 26 -4 33 -1 12 -45 14 -116 5z"/>
<path d="M12209 8046 c-135 -48 -203 -155 -203 -321 0 -78 3 -97 26 -141 59
-114 182 -178 338 -178 160 1 266 91 304 259 50 219 -113 396 -364 394 -36 0
-81 -6 -101 -13z m208 -142 c131 -38 183 -151 126 -272 -44 -92 -194 -116
-323 -51 -99 49 -131 154 -77 253 44 79 150 106 274 70z"/>
<path d="M2895 7773 c-11 -3 -24 -9 -28 -13 -7 -6 97 -505 107 -517 1 -1 99
19 104 22 1 1 -7 44 -18 96 -10 51 -16 96 -12 100 4 3 50 15 102 27 252 57
406 94 412 101 4 3 4 22 -1 41 -5 19 -12 47 -15 62 -4 18 -11 25 -23 22 -10
-2 -76 -18 -148 -35 -71 -17 -139 -33 -150 -35 -11 -2 -64 -14 -117 -27 l-98
-24 -9 36 c-5 20 -15 62 -22 94 -13 60 -21 65 -84 50z"/>
<path d="M3520 7358 c-41 -40 -120 -114 -175 -166 -55 -52 -137 -131 -183
-175 -91 -89 -90 -84 -52 -171 l19 -46 351 0 c278 0 351 3 347 13 -3 6 -14 36
-23 65 l-18 52 -82 0 -81 0 -48 126 -47 126 60 57 60 56 -26 67 -27 67 -75
-71z m-70 -287 c0 -9 4 -21 9 -26 10 -12 42 -107 37 -112 -2 -2 -59 -5 -127
-7 l-123 -3 94 87 c52 49 98 86 103 83 4 -2 7 -12 7 -22z"/>
<path d="M12010 7291 c-80 -26 -146 -86 -188 -171 -14 -30 -27 -59 -29 -65
-20 -93 -22 -188 -5 -250 7 -26 20 -34 127 -77 66 -26 123 -44 127 -40 7 8 98
248 98 260 0 12 -93 43 -100 35 -4 -5 -17 -36 -30 -71 -24 -67 -32 -71 -87
-36 -20 13 -23 23 -23 77 1 134 67 210 183 211 105 0 220 -65 253 -143 40 -96
-20 -225 -113 -240 -39 -7 -43 -13 -57 -100 l-7 -44 59 5 c106 10 171 69 222
199 69 178 2 338 -178 422 -54 25 -81 31 -147 34 -44 1 -91 -1 -105 -6z"/>
<path d="M3720 6643 c-318 -188 -415 -246 -418 -249 -6 -5 51 -104 59 -104 4
0 88 47 186 104 97 58 179 103 181 102 1 -2 -51 -104 -116 -227 l-120 -224 26
-45 c14 -25 30 -50 36 -56 8 -8 86 33 286 152 151 90 276 168 278 173 4 12
-47 101 -56 101 -4 0 -86 -47 -182 -104 -96 -57 -177 -102 -179 -100 -2 2 12
31 32 66 19 35 71 134 116 220 l82 157 -16 32 c-9 17 -24 44 -34 59 l-17 28
-144 -85z"/>
<path d="M11539 6483 c-38 -67 -45 -58 105 -143 l96 -55 96 -190 c53 -104 102
-196 109 -203 10 -11 18 -3 45 45 18 32 33 63 33 68 0 6 -30 65 -68 133 -37
67 -64 126 -60 130 3 4 46 8 93 8 48 1 112 2 142 3 l55 1 33 59 c37 68 39 81
15 77 -10 -2 -110 -7 -223 -10 l-205 -7 -117 70 -118 69 -31 -55z"/>
<path d="M10056 5107 l-28 -23 42 -255 c23 -139 44 -257 47 -262 2 -4 -2 -10
-10 -13 -8 -3 -52 18 -98 45 -45 28 -95 53 -111 56 l-27 6 26 40 c31 48 34
102 6 155 -25 50 -65 78 -106 77 -25 -1 -258 -101 -276 -119 -9 -9 155 -436
181 -471 7 -9 16 -9 36 0 67 30 66 23 17 132 l-44 99 30 13 c17 7 37 13 45 13
7 0 60 -27 118 -60 l105 -61 51 26 c27 14 50 29 50 34 0 4 6 8 14 8 27 0 87
45 81 61 -14 36 -25 107 -18 109 4 2 39 23 78 47 l70 45 40 -33 c22 -18 45
-36 52 -39 12 -8 83 29 83 43 0 5 -17 21 -37 37 -60 44 -209 171 -290 245 -40
37 -78 68 -85 68 -7 0 -26 -10 -42 -23z m177 -208 c15 -12 27 -25 27 -28 0
-10 -91 -64 -97 -58 -3 3 -11 37 -19 74 -8 37 -16 79 -20 93 -5 23 -1 21 38
-16 24 -23 55 -52 71 -65z m-423 -81 c11 -12 21 -25 21 -30 1 -4 2 -14 3 -20
4 -27 -16 -46 -84 -82 l-70 -37 -9 23 c-5 13 -16 40 -25 61 l-15 38 72 35 c39
18 75 34 79 34 4 0 16 -10 28 -22z"/>
<path d="M5262 4918 c-38 -68 -99 -180 -135 -250 l-66 -127 34 -21 c19 -12 39
-19 44 -16 5 4 24 37 41 75 27 58 37 71 76 89 24 12 49 22 53 22 5 0 9 -64 8
-142 l-2 -143 53 -28 c29 -16 55 -27 57 -25 1 1 -1 41 -5 88 -5 47 -9 135 -9
195 l-1 110 122 61 121 61 -49 27 -49 28 -140 -73 c-116 -61 -137 -69 -124
-49 9 14 37 65 64 114 l48 89 -24 18 c-13 10 -29 19 -36 19 -6 0 -43 -55 -81
-122z"/>
<path d="M5649 4733 c-129 -274 -144 -335 -103 -415 37 -72 175 -120 256 -89
44 17 69 62 149 269 l77 197 -40 18 c-33 16 -42 16 -49 5 -5 -7 -41 -92 -79
-190 -39 -97 -79 -183 -89 -192 -42 -38 -124 -8 -142 53 -10 35 -8 46 25 129
20 50 57 135 82 188 25 53 44 97 42 99 -7 6 -67 35 -73 35 -3 0 -28 -48 -56
-107z"/>
<path d="M9405 4765 c-16 -8 -92 -37 -167 -66 -145 -55 -149 -59 -129 -112
l10 -25 67 24 c68 25 83 23 84 -12 0 -18 111 -348 121 -358 9 -10 99 21 99 34
0 5 -16 50 -36 102 -19 51 -49 134 -65 183 -17 50 -32 95 -35 101 -3 6 25 23
61 39 67 28 72 35 55 79 -11 29 -21 31 -65 11z"/>
<path d="M6115 4643 c-62 -161 -165 -468 -165 -496 0 -13 86 -46 93 -36 2 2
16 49 32 104 16 55 30 102 31 103 1 2 18 -1 36 -7 41 -14 56 -38 98 -163 18
-54 38 -102 44 -107 13 -10 109 -32 115 -26 7 8 -61 189 -85 226 l-23 37 37 7
c84 16 132 78 132 171 0 48 -13 73 -51 102 -13 10 -270 102 -284 102 -1 0 -6
-8 -10 -17z m146 -128 c86 -29 92 -34 91 -77 -1 -48 -40 -79 -84 -68 -89 21
-128 35 -128 46 0 10 13 50 35 112 6 15 1 16 86 -13z"/>
<path d="M8960 4604 c-25 -8 -54 -16 -65 -18 -44 -10 -220 -58 -223 -61 -6 -6
27 -208 54 -335 14 -63 27 -127 31 -142 6 -32 -8 -33 173 14 167 43 250 69
250 77 0 22 -23 71 -33 71 -7 0 -75 -18 -151 -40 -77 -22 -140 -39 -142 -37
-1 1 -8 32 -17 68 l-15 67 133 37 132 37 -9 39 c-6 21 -16 39 -22 39 -6 0 -58
-13 -116 -30 -132 -38 -136 -38 -144 1 -15 75 -18 73 122 111 133 37 141 42
128 94 -7 27 -21 29 -86 8z"/>
<path d="M6580 4478 c-7 -23 -25 -92 -42 -153 -16 -60 -32 -140 -35 -176 -5
-57 -2 -72 18 -108 47 -84 211 -128 312 -83 61 27 81 62 101 175 9 51 26 141
37 200 11 60 18 111 15 114 -3 4 -26 9 -51 13 -41 6 -46 5 -50 -14 -3 -12 -21
-99 -40 -195 -20 -101 -41 -181 -50 -191 -34 -38 -125 -30 -166 13 -18 19 -20
30 -15 82 3 33 21 123 41 200 40 162 39 152 23 152 -7 0 -30 4 -50 8 -37 7
-37 7 -48 -37z"/>
<path d="M8485 4491 c-33 -7 -34 -15 -16 -145 5 -40 4 -59 -3 -62 -14 -5 -200
-33 -203 -31 -5 6 -11 70 -12 130 -1 74 -3 76 -81 61 l-32 -7 7 -146 c4 -80 8
-153 10 -161 2 -8 6 -51 10 -95 10 -116 8 -113 60 -105 25 4 48 8 50 8 3 1 10
2 16 2 5 0 8 3 6 8 -6 9 -20 125 -21 177 l-1 39 108 16 c59 9 107 14 107 11 0
-11 31 -186 36 -202 4 -14 12 -15 57 -7 28 6 54 11 56 13 2 2 -7 55 -19 117
-18 93 -59 353 -60 381 0 8 -31 8 -75 -2z"/>
<path d="M7106 4428 c-12 -34 -51 -303 -62 -423 -3 -38 -8 -73 -10 -77 -7 -11
7 -16 63 -23 l52 -6 7 80 6 80 50 42 c27 22 50 40 52 38 2 -4 77 -134 120
-211 l21 -38 78 0 78 0 -52 73 c-62 86 -110 160 -139 212 -17 31 -19 40 -8 50
7 7 40 36 73 65 128 112 129 113 109 120 -10 4 -42 6 -71 5 -50 -1 -58 -5
-106 -52 -29 -27 -82 -76 -119 -107 -77 -66 -75 -70 -53 74 8 52 13 95 12 96
-1 1 -23 5 -50 8 -35 5 -48 4 -51 -6z"/>
<path d="M7910 12490 c-4 -3 -7 -21 -6 -40 1 -33 3 -35 42 -38 37 -3 42 0 45
20 9 51 0 65 -37 64 -20 0 -39 -3 -44 -6z"/>
<path d="M7733 12464 c-37 -22 -43 -30 -43 -60 0 -27 -4 -34 -20 -34 -16 0
-20 -7 -20 -35 0 -28 4 -35 20 -35 19 0 20 -7 20 -110 0 -104 1 -112 25 -135
18 -19 35 -25 67 -25 54 0 70 10 64 41 -3 13 -5 26 -5 29 -1 3 -13 6 -28 5
l-28 0 -3 98 -3 97 31 0 c28 0 30 3 30 35 0 32 -2 35 -30 35 -29 0 -29 1 -32
60 l-3 60 -42 -26z"/>
<path d="M7063 12423 c-13 -2 -23 -10 -23 -17 0 -7 14 -72 31 -145 16 -73 28
-135 26 -137 -2 -2 -59 53 -127 121 -68 69 -126 125 -129 125 -3 0 -23 -5 -44
-11 -31 -8 -36 -13 -32 -32 3 -12 16 -71 30 -132 59 -259 66 -290 70 -293 2
-2 22 -1 45 3 31 5 40 11 36 23 -3 10 -17 71 -31 137 -15 66 -29 123 -31 127
-3 5 -2 8 3 8 4 0 62 -54 127 -121 110 -111 122 -120 149 -115 16 3 36 6 43 6
20 0 18 15 -26 209 -65 281 -53 256 -117 244z"/>
<path d="M7906 12361 c-2 -3 -3 -78 -2 -166 l1 -160 43 -3 42 -3 0 170 0 171
-40 -2 c-23 -1 -42 -4 -44 -7z"/>
<path d="M7364 12342 c-43 -12 -84 -56 -84 -89 0 -23 75 -16 91 7 18 26 74 34
94 14 28 -28 16 -42 -52 -65 -119 -39 -158 -111 -95 -178 39 -43 98 -45 155
-6 32 21 38 22 46 8 6 -12 17 -15 46 -10 47 8 49 10 36 36 -6 11 -18 69 -26
128 -9 59 -22 117 -30 129 -27 41 -95 51 -181 26z m109 -252 c-31 -30 -60 -33
-83 -10 -19 19 -20 24 -8 42 8 11 34 29 58 38 l45 18 3 -36 c2 -24 -2 -41 -15
-52z"/>
<path d="M8184 12331 c-71 -33 -110 -115 -94 -201 14 -76 67 -122 155 -133
130 -17 229 133 170 257 -37 78 -150 115 -231 77z m134 -87 c37 -42 23 -150
-23 -168 -62 -24 -118 16 -117 84 1 59 10 79 45 101 37 22 63 17 95 -17z"/>
<path d="M8547 12268 c-31 -125 -68 -300 -65 -303 2 -2 22 -7 44 -10 l40 -7
22 100 c26 113 49 152 91 152 29 0 61 -27 61 -51 0 -8 -11 -61 -24 -119 -13
-58 -21 -108 -18 -112 4 -3 23 -9 43 -13 l37 -7 26 111 c40 169 34 210 -29
237 -44 18 -89 18 -124 0 -27 -14 -28 -14 -24 8 4 19 0 24 -27 30 -46 9 -47 8
-53 -16z"/>
<path d="M6431 12236 c-66 -24 -86 -65 -66 -138 5 -21 2 -29 -14 -37 -17 -10
-19 -15 -9 -41 8 -25 15 -30 36 -28 24 3 28 -4 70 -112 25 -63 46 -117 48
-119 4 -4 84 20 84 25 0 2 -20 56 -45 120 -25 64 -45 119 -45 124 0 4 13 13
29 20 27 11 28 14 18 41 -12 30 -30 36 -57 19 -11 -7 -18 -3 -26 13 -13 24 -2
57 19 57 26 0 38 17 31 43 -7 30 -21 32 -73 13z"/>
<path d="M8991 12139 c-43 -26 -44 -35 -10 -57 26 -16 36 -18 60 -8 41 15 83
-8 87 -48 4 -28 3 -29 -35 -22 -149 27 -194 15 -213 -54 -9 -32 -8 -46 5 -70
25 -48 92 -75 148 -59 23 6 27 5 27 -12 0 -13 12 -25 35 -35 44 -18 45 -18 45
6 0 11 18 67 40 125 22 58 40 116 40 129 0 76 -157 149 -229 105z m107 -194
c7 -7 -28 -63 -43 -69 -27 -10 -62 -7 -72 7 -39 50 -12 82 61 72 28 -3 52 -8
54 -10z"/>
<path d="M9367 12103 c-8 -21 -27 -65 -42 -98 -43 -93 -125 -279 -125 -283 0
-9 74 -32 81 -25 4 4 47 96 94 203 48 107 89 198 91 202 5 8 -49 38 -69 38 -8
0 -22 -17 -30 -37z"/>
<path d="M6141 11955 c-128 -40 -162 -189 -67 -293 49 -54 119 -66 191 -33 97
45 131 141 84 239 -38 77 -123 113 -208 87z m102 -94 c10 -10 24 -35 31 -56
35 -100 -64 -159 -133 -80 -17 20 -31 43 -32 53 0 9 -2 26 -4 36 -2 11 9 31
26 49 25 25 35 28 62 23 18 -4 40 -15 50 -25z"/>
<path d="M9656 11766 c-153 -233 -144 -210 -99 -240 l37 -25 19 27 c52 76 238
365 235 366 -2 2 -17 12 -35 24 -17 12 -34 22 -37 22 -4 0 -58 -78 -120 -174z"/>
<path d="M9785 11599 c-53 -67 -98 -128 -99 -136 0 -8 12 -25 27 -37 l29 -21
25 30 c102 123 135 155 162 155 15 0 36 -9 46 -20 24 -26 16 -42 -69 -147 -36
-45 -66 -86 -66 -92 0 -9 52 -51 62 -51 3 0 29 30 59 67 30 37 65 77 79 90 31
29 74 30 94 2 19 -28 10 -48 -78 -154 l-66 -80 32 -28 c18 -15 36 -26 39 -25
19 7 160 197 169 227 17 61 -31 120 -104 128 -40 5 -45 8 -50 38 -9 49 -68 95
-121 95 -21 0 -24 3 -17 17 7 12 3 22 -18 40 -15 12 -30 23 -32 23 -3 0 -49
-54 -103 -121z"/>
<path d="M5619 11617 c-24 -16 -39 -37 -50 -71 -11 -32 -18 -43 -22 -32 -9 22
-27 20 -58 -7 l-27 -22 93 -118 c125 -160 114 -151 152 -119 l33 27 -64 83
c-36 46 -67 96 -71 112 -11 51 27 90 74 75 17 -5 140 -151 149 -176 6 -15 26
-10 55 17 20 17 26 28 19 37 -5 7 -37 48 -71 92 -34 44 -74 90 -89 102 -35 29
-80 29 -123 0z"/>
<path d="M5332 11336 c-46 -16 -96 -59 -115 -99 -46 -96 15 -215 125 -245 106
-29 222 70 212 180 -11 111 -126 196 -222 164z m81 -94 c41 -28 56 -53 57 -94
1 -101 -134 -102 -176 -1 -35 83 43 145 119 95z"/>
<path d="M10333 11284 c-83 -76 -303 -296 -303 -303 0 -4 13 -19 28 -34 l28
-27 54 55 c30 30 58 55 62 55 4 0 8 -12 8 -27 0 -14 11 -41 25 -59 108 -141
368 61 275 213 -21 35 -43 49 -85 57 -29 5 -47 16 -27 16 19 0 14 20 -12 51
l-25 29 -28 -26z m92 -139 c14 -13 25 -31 25 -40 0 -49 -75 -125 -123 -125
-15 0 -36 9 -47 20 -30 30 -25 73 12 116 52 59 95 68 133 29z"/>
<path d="M4959 11153 c-40 -49 -40 -48 -8 -72 l31 -23 29 28 29 28 -27 28
c-31 33 -35 34 -54 11z"/>
<path d="M5041 11049 c-13 -17 -19 -34 -15 -39 89 -81 238 -210 243 -210 4 0
18 14 31 32 l23 31 -39 36 c-151 138 -200 181 -210 181 -5 0 -21 -14 -33 -31z"/>
<path d="M7735 11037 c-12 -25 -164 -315 -275 -522 -46 -87 -50 -81 58 -83
150 -3 136 26 128 -256 -4 -132 -9 -288 -11 -346 -2 -58 -7 -181 -10 -275 -3
-93 -7 -171 -9 -172 -7 -8 -181 30 -245 53 -96 35 -147 83 -156 148 -15 98 14
143 122 193 l52 24 40 -21 c53 -27 82 -25 112 6 20 22 24 35 24 92 0 51 -5 73
-20 94 -24 33 -76 46 -113 28 -15 -7 -58 -19 -97 -26 -210 -41 -368 -197 -383
-379 -4 -56 -1 -69 22 -108 14 -25 43 -59 63 -75 105 -83 309 -151 501 -168
41 -4 72 -12 73 -18 2 -22 -3 -253 -6 -321 -2 -38 -6 -161 -10 -271 l-6 -202
183 2 183 1 -1 55 c0 62 -14 319 -19 365 -2 17 -6 89 -10 160 -3 72 -8 149
-11 173 -4 38 -3 42 18 43 90 3 240 27 345 54 190 50 308 133 333 234 25 104
-19 235 -104 307 -37 32 -152 96 -180 100 -6 1 -38 7 -70 13 -33 6 -88 11
-122 11 -35 0 -66 5 -69 11 -11 16 -56 30 -77 23 -45 -14 -63 -130 -30 -193
25 -50 46 -60 83 -38 17 9 45 17 62 17 43 0 151 -26 187 -45 129 -67 113 -221
-29 -281 -64 -27 -184 -54 -273 -60 l-88 -7 -1 54 c0 30 -2 65 -4 79 -1 14 -6
81 -9 150 -4 69 -9 154 -11 190 -2 36 -7 108 -10 160 -3 52 -7 124 -10 160 -2
36 -7 110 -10 166 l-6 100 111 -4 111 -4 -44 89 c-25 48 -95 190 -156 316 -61
125 -112 227 -114 227 -1 0 -7 -10 -12 -23z"/>
<path d="M4826 10947 c-13 -50 -7 -84 20 -102 21 -13 23 -19 13 -31 -10 -12
-8 -19 9 -37 19 -19 25 -20 43 -9 19 12 28 8 95 -43 98 -74 115 -81 153 -65
30 12 53 39 65 75 4 16 -1 25 -23 38 -29 17 -30 17 -36 -3 -10 -32 -36 -24
-113 33 -66 50 -70 55 -57 73 21 27 18 39 -11 54 -23 13 -27 12 -43 -8 l-17
-23 -46 35 c-45 35 -46 35 -52 13z"/>
<path d="M10560 10919 c-135 -57 -165 -214 -58 -304 109 -92 288 -8 288 137 0
88 -72 168 -157 174 -26 2 -59 -1 -73 -7z m140 -109 c13 -24 13 -66 0 -90 -14
-26 -73 -60 -104 -60 -64 0 -97 54 -68 112 23 46 92 80 133 66 16 -5 34 -18
39 -28z"/>
<path d="M4785 10692 c-23 -33 -24 -38 -9 -47 9 -5 52 -35 97 -65 88 -60 104
-85 80 -132 -21 -43 -54 -36 -160 32 -52 33 -98 60 -103 60 -4 0 -17 -15 -28
-34 l-20 -34 91 -61 c152 -100 188 -107 245 -46 27 30 32 42 32 86 0 44 2 50
15 39 18 -15 31 -7 50 30 l15 28 -140 91 -140 90 -25 -37z"/>
<path d="M10837 10579 c-38 -22 -104 -58 -147 -81 l-78 -42 19 -38 c11 -21 21
-38 24 -38 2 0 49 23 103 51 114 59 148 61 159 9 6 -31 17 -35 61 -24 48 13 5
104 -50 104 -20 1 -21 2 -5 11 22 13 21 27 -1 60 l-17 27 -68 -39z"/>
<path d="M10990 10405 c-16 -8 -25 -22 -25 -36 0 -19 -16 -32 -83 -69 -104
-57 -122 -73 -122 -108 0 -29 36 -93 55 -98 6 -2 21 5 34 15 21 16 22 20 10
39 -9 14 -10 25 -4 31 21 21 160 92 163 83 1 -5 8 -17 15 -26 11 -15 17 -16
41 -5 27 12 28 20 12 60 -5 11 6 21 44 39 55 26 54 34 -4 65 -31 17 -38 17
-61 5 -24 -13 -28 -13 -39 2 -10 14 -15 14 -36 3z"/>
<path d="M4470 10332 c0 -42 3 -50 30 -65 24 -15 28 -22 21 -36 -8 -15 -4 -21
23 -33 30 -15 33 -15 43 1 10 14 20 11 101 -31 49 -27 103 -48 119 -48 33 0
66 29 82 73 15 38 14 44 -6 50 -10 2 -26 8 -35 12 -14 5 -18 2 -18 -14 0 -37
-26 -34 -110 11 -59 31 -79 47 -74 58 16 39 14 47 -12 59 -25 11 -30 10 -41
-5 -7 -10 -13 -22 -13 -26 0 -5 -22 3 -50 17 -27 14 -52 25 -55 25 -3 0 -5
-22 -5 -48z"/>
<path d="M4355 10160 c-21 -40 -19 -47 15 -65 38 -20 37 -20 55 15 21 40 19
47 -15 65 -38 20 -37 20 -55 -15z"/>
<path d="M4472 10107 c-18 -49 -16 -53 26 -70 20 -8 66 -28 102 -45 36 -16 86
-39 113 -50 l47 -21 15 29 c8 16 15 35 15 43 0 10 -170 93 -295 143 -6 3 -16
-11 -23 -29z"/>
<path d="M11070 10116 c0 -34 10 -56 25 -56 20 0 55 -49 55 -76 0 -13 -9 -28
-20 -34 -17 -9 -24 -5 -52 37 -65 93 -82 108 -128 108 -35 0 -47 -6 -71 -33
-16 -18 -29 -44 -29 -57 0 -41 26 -91 59 -116 26 -19 28 -24 15 -33 -13 -10
-12 -16 2 -54 l17 -42 21 19 c12 11 62 35 113 55 114 43 130 54 143 90 20 58
-31 179 -85 202 -50 20 -65 18 -65 -10z m-46 -153 c16 -24 27 -45 25 -48 -3
-2 -21 -7 -40 -10 -41 -7 -79 22 -79 58 0 60 52 60 94 0z"/>
<path d="M4411 9940 l-10 -29 -56 19 -57 19 7 -42 c9 -50 18 -63 50 -71 18 -5
24 -12 22 -28 -3 -31 47 -50 66 -25 11 16 18 15 101 -13 112 -37 148 -38 174
-5 18 23 38 92 29 101 -2 2 -17 7 -34 10 -27 5 -31 3 -37 -21 -6 -24 -10 -26
-39 -19 -17 3 -58 17 -92 29 -57 22 -63 29 -54 64 2 8 -9 19 -28 27 -30 13
-32 13 -42 -16z"/>
<path d="M11256 9783 c-2 -2 -65 -21 -139 -43 -75 -21 -141 -41 -146 -44 -7
-5 3 -72 13 -83 1 -1 49 10 107 25 57 16 109 28 114 27 32 -3 55 -19 64 -45
16 -47 -9 -66 -129 -101 -58 -17 -108 -33 -112 -35 -5 -3 10 -70 18 -83 2 -2
60 14 131 35 146 43 173 63 173 127 0 47 -21 89 -57 115 -26 19 -26 20 -6 26
19 6 20 11 11 45 -8 32 -28 48 -42 34z"/>
<path d="M4365 9691 c-47 -20 -85 -99 -85 -177 0 -55 30 -92 82 -101 34 -5 41
-2 75 33 21 22 50 61 66 87 33 57 60 61 65 9 4 -41 -20 -79 -53 -88 -22 -5
-25 -12 -25 -51 0 -41 2 -44 23 -38 79 24 134 114 124 205 -8 76 -85 123 -147
90 -10 -5 -40 -44 -65 -85 -44 -71 -66 -88 -80 -65 -3 5 -1 28 5 50 8 29 18
44 36 50 20 8 24 16 24 50 0 41 -7 46 -45 31z"/>
<path d="M11185 9345 c-47 -16 -102 -76 -107 -114 -5 -39 9 -107 28 -136 19
-29 56 -51 94 -56 23 -4 25 -1 26 37 1 38 -1 42 -32 53 -64 23 -54 102 16 127
61 22 106 18 129 -12 26 -33 27 -58 1 -84 -24 -24 -24 -22 -5 -66 14 -35 14
-35 40 -18 83 54 69 210 -24 262 -45 25 -106 28 -166 7z"/>
<path d="M4275 9301 c-60 -25 -83 -114 -46 -177 22 -36 22 -36 1 -31 -23 6
-25 4 -34 -44 l-6 -36 62 -7 c35 -3 74 -8 88 -11 56 -9 183 -25 186 -23 1 2 4
21 6 43 3 45 13 41 -149 66 -61 9 -76 15 -92 38 -24 33 -18 75 12 88 15 7 59
5 135 -4 63 -8 115 -13 118 -11 2 3 5 22 6 43 l3 39 -75 11 c-122 19 -194 24
-215 16z"/>
<path d="M11217 8975 c-79 -28 -116 -92 -103 -178 8 -51 34 -90 76 -112 25
-13 29 -13 34 1 14 36 6 72 -19 88 -31 20 -34 67 -5 96 30 30 60 26 60 -7 1
-66 13 -179 20 -187 4 -4 32 -1 62 8 80 23 120 74 120 152 0 115 -121 184
-245 139z m151 -92 c31 -28 35 -56 11 -86 -28 -36 -59 -36 -59 1 -1 15 -3 44
-6 65 -5 32 -3 37 14 37 11 0 29 -8 40 -17z"/>
<path d="M4059 8893 c0 -15 -2 -36 -4 -45 -2 -10 0 -20 3 -22 4 -2 57 -7 117
-11 61 -4 112 -9 115 -10 3 -2 51 -7 105 -10 55 -4 103 -9 108 -12 9 -5 15 11
20 58 l5 37 -77 6 c-42 4 -92 9 -111 11 -19 2 -71 7 -115 10 -44 3 -99 8 -122
11 -42 5 -43 5 -44 -23z"/>
<path d="M14577 3644 c-1 -1 -189 -5 -417 -9 -228 -4 -487 -8 -575 -10 -88 -2
-347 -6 -575 -10 -228 -4 -458 -9 -510 -10 -52 -2 -183 -4 -290 -5 -191 -2
-197 -2 -307 -36 -222 -67 -379 -177 -438 -307 -56 -122 -29 -266 74 -389 l39
-47 -1 -382 0 -381 -2381 7 c-1309 3 -2763 8 -3231 10 -467 2 -1086 4 -1375 4
l-526 1 1 353 0 353 38 40 c179 185 95 428 -196 564 -35 17 -103 42 -153 56
-82 24 -106 26 -309 29 -303 4 -2022 17 -2450 19 l-349 1 -1 -49 c-2 -78 29
-130 131 -217 113 -97 310 -262 492 -411 l142 -116 -77 -69 c-88 -77 -94 -83
-293 -259 -80 -71 -177 -156 -214 -189 -38 -33 -74 -65 -80 -70 -6 -6 -80 -70
-163 -144 -84 -73 -153 -135 -153 -138 0 -4 140 -1 630 12 102 3 316 7 475 11
160 3 340 7 400 9 61 2 266 7 457 10 l347 7 3 -458 3 -459 36 -82 c87 -194
200 -307 353 -356 l71 -22 4580 1 c4365 0 4583 1 4645 18 191 52 343 191 423
386 61 147 61 148 65 629 l3 443 287 -7 c158 -3 339 -8 402 -10 63 -2 250 -7
415 -10 165 -4 341 -8 390 -10 208 -7 406 -7 413 -1 4 4 21 44 39 89 23 62 28
85 20 94 -10 9 -658 468 -895 632 -34 24 -61 46 -58 48 2 2 76 56 164 121 88
64 289 211 446 325 l284 209 -25 66 c-47 126 -36 117 -136 117 -49 0 -89 -1
-90 -1z m-162 -216 c3 -2 -46 -41 -108 -86 -61 -45 -170 -124 -242 -177 -71
-52 -212 -155 -312 -228 -140 -101 -179 -135 -170 -143 7 -7 206 -148 442
-314 237 -167 437 -309 445 -317 13 -12 -12 -14 -180 -9 -216 6 -490 13 -830
21 -375 9 -635 17 -638 20 -2 2 2 14 9 27 9 14 14 59 14 119 0 92 -1 98 -42
180 -28 57 -63 107 -110 156 l-68 72 -430 97 c-425 95 -430 97 -467 132 -49
46 -82 123 -73 169 14 77 148 170 317 222 72 22 119 24 873 36 193 4 436 8
540 10 105 2 366 7 580 11 215 3 391 7 392 8 4 4 53 -1 58 -6z m-11610 -153
c751 -6 805 -7 878 -26 155 -39 279 -122 293 -196 8 -44 -22 -89 -90 -134 -48
-31 -57 -33 -176 -41 -324 -20 -644 -122 -810 -257 -65 -52 -86 -78 -121 -148
-54 -108 -41 -219 41 -338 l31 -45 -118 -1 c-65 0 -149 -2 -188 -4 -38 -1
-227 -6 -420 -10 -192 -3 -406 -8 -475 -10 -69 -2 -244 -6 -390 -10 l-265 -6
30 28 c17 16 125 112 240 213 116 102 226 199 245 216 19 17 78 70 132 117
l96 85 -66 54 c-108 87 -472 387 -487 401 -7 6 -30 26 -51 42 -21 17 -51 42
-68 58 l-31 28 485 -6 c267 -2 845 -7 1285 -10z m8859 -521 c14 -5 16 -46 16
-350 l0 -344 -23 0 -24 0 0 350 c0 193 4 350 8 350 4 0 14 -3 23 -6z m-7654
-344 c0 -323 0 -330 -20 -330 -20 0 -20 7 -20 324 0 324 1 332 33 335 4 1 7
-147 7 -329z m7777 -19 l2 -331 -24 0 -25 0 0 340 0 339 23 -8 22 -8 2 -332z
m90 311 c8 -5 13 -95 15 -325 l4 -317 -26 0 -27 0 0 325 c-1 327 1 338 34 317z
m-7967 -316 c0 -269 -2 -305 -16 -310 -9 -3 -20 -4 -25 0 -5 3 -9 135 -9 304
0 318 -2 302 43 309 4 0 7 -136 7 -303z m8070 294 c13 -8 15 -54 15 -315 l1
-305 -23 0 -23 0 0 315 c0 173 3 315 8 315 4 0 14 -5 22 -10z m-8179 -18 c1
-21 1 -551 0 -573 -1 -10 -9 -16 -23 -15 l-23 1 -3 290 c-1 159 -1 294 2 300
7 18 46 15 47 -3z m-106 -262 c0 -325 0 -332 -29 -328 -21 3 -21 5 -23 288 -1
157 0 291 3 298 2 7 14 12 26 10 l23 -3 0 -265z m-110 -41 l1 -290 -26 3 -25
3 -1 287 c-1 284 -1 287 20 290 12 2 23 2 26 0 3 -2 5 -134 5 -293z m8515 1
l0 -300 -25 0 -25 0 0 300 0 300 25 0 25 0 0 -300z m-8623 -5 l0 -285 -26 0
-26 0 0 278 c0 298 -3 283 46 291 4 1 6 -127 6 -284z m8719 277 c6 -5 10 -103
9 -292 0 -279 -1 -285 -20 -282 -11 2 -21 5 -23 6 -2 3 -4 461 -3 549 1 26 15
34 37 19z m112 -291 l-3 -266 -22 -3 -23 -3 0 274 0 274 25 -5 25 -4 -2 -267z
m-8938 -2 l0 -270 -27 3 -27 3 1 258 c0 212 2 260 14 268 38 24 39 18 39 -262z
m9041 244 c6 -35 3 -448 -3 -463 -4 -11 -14 -20 -23 -20 -13 0 -15 32 -15 245
0 238 1 245 20 245 11 0 21 -3 21 -7z m-9151 -258 l0 -255 -25 0 -25 0 0 245
c0 245 0 246 23 255 12 5 23 9 25 9 1 1 2 -114 2 -254z m9251 235 c5 0 9 -85
9 -198 l0 -199 -25 -11 -25 -12 0 216 c0 193 2 215 16 210 9 -3 20 -6 25 -6z
m-9361 -236 l0 -206 -22 14 c-22 15 -23 21 -26 195 -2 178 -2 180 20 191 13 6
24 11 26 11 1 1 2 -92 2 -205z m9455 116 c25 -48 23 -150 -3 -191 -12 -19 -22
-29 -22 -24 -1 6 -1 55 -2 110 0 155 0 156 27 105z m-9565 -107 l-1 -128 -24
30 c-22 26 -25 40 -25 104 0 63 3 78 22 98 12 13 23 23 25 23 2 0 3 -57 3
-127z m9658 -760 l-3 -458 -28 -82 c-50 -149 -142 -254 -262 -299 -49 -19
-170 -19 -4625 -19 l-4575 0 -47 27 c-61 36 -116 100 -158 185 l-35 68 -2 497
-2 496 97 -65 97 -64 320 5 c377 7 2033 7 3655 1 4443 -17 5103 -17 5181 0 41
9 94 23 119 32 69 23 202 88 230 111 14 12 29 21 33 22 4 0 7 -206 5 -457z"/>
<path d="M4884 1735 c-4 -9 5 -33 20 -55 25 -38 27 -39 80 -38 64 2 98 -18
186 -107 l54 -55 -572 0 c-315 0 -572 -3 -572 -6 0 -3 14 -24 31 -45 28 -35
35 -39 78 -39 l47 0 -2 -52 c-1 -29 -3 -79 -3 -110 -1 -43 -5 -58 -15 -58 -15
0 -154 55 -164 64 -3 3 2 14 10 23 52 60 3 168 -97 214 -100 46 -213 -5 -231
-107 -6 -30 45 -89 92 -106 19 -6 34 -15 34 -19 0 -7 -154 -79 -170 -79 -5 0
-10 -4 -10 -10 0 -11 70 -60 86 -60 6 0 61 25 122 54 l111 55 40 -17 c23 -9
41 -19 41 -22 0 -6 -238 -138 -272 -152 -27 -11 -22 -20 27 -51 l45 -29 170
96 c93 53 172 96 175 96 3 0 5 -31 5 -70 l0 -70 53 -30 c28 -16 55 -30 60 -30
4 0 7 106 7 235 l0 235 114 0 114 0 1 -95 c2 -79 -1 -95 -14 -96 -8 -1 -19 -3
-25 -4 -5 -1 -14 -3 -20 -4 -23 -3 -7 -42 34 -84 80 -79 146 -93 146 -29 l0
27 88 -1 c48 -1 95 -2 105 -3 15 -1 17 -8 11 -60 l-6 -58 46 -26 c89 -49 81
-67 81 196 l0 232 81 3 81 3 -4 -204 -5 -204 56 -33 c32 -18 60 -30 63 -26 3
3 6 109 6 236 l0 230 79 0 79 0 -32 45 -32 45 -62 0 -63 0 -41 53 c-59 77
-174 185 -215 202 -48 20 -125 20 -132 0z m-906 -337 c21 -21 13 -62 -19 -95
-16 -18 -35 -33 -42 -33 -20 1 -46 25 -57 54 -9 24 -7 31 19 57 31 31 77 39
99 17z m928 -93 c0 -121 8 -113 -107 -112 l-99 0 0 99 0 99 102 -3 103 -3 1
-80z"/>
<path d="M9122 1737 c-8 -9 -4 -24 16 -54 27 -42 27 -42 83 -41 67 2 80 -6
168 -93 l63 -64 -361 -3 -362 -2 32 -45 32 -45 319 0 318 0 0 -84 0 -84 -76
-52 c-109 -75 -213 -112 -254 -90 -27 15 -25 43 6 79 37 45 56 52 142 57 42 3
78 7 80 9 3 2 -10 21 -27 42 l-31 38 -204 1 -205 1 30 -44 c25 -36 35 -43 63
-43 42 0 46 -5 33 -39 -29 -79 94 -181 219 -181 58 0 147 34 183 71 16 16 31
29 34 29 2 0 0 -25 -5 -57 -5 -31 -5 -60 -1 -64 8 -8 108 -59 115 -59 2 0 3
102 3 226 0 124 2 230 6 235 3 6 46 9 99 7 l93 -3 1 -107 c1 -123 10 -143 90
-192 59 -37 146 -47 193 -23 29 16 31 15 63 -18 57 -58 120 -80 235 -80 87 0
107 4 158 27 31 15 57 30 57 34 0 4 -12 26 -27 49 l-26 42 -41 -23 c-55 -30
-162 -64 -203 -64 -84 0 -133 53 -98 106 21 32 36 39 145 63 129 28 140 32
142 45 0 6 2 36 3 66 2 30 3 61 4 68 1 9 34 12 132 12 l131 0 -4 -205 -4 -204
57 -31 c31 -16 60 -30 63 -30 3 0 6 106 6 235 l0 235 75 0 c41 0 75 3 75 6 0
3 -14 24 -31 45 l-31 39 -696 0 -697 0 -21 30 c-49 71 -160 183 -208 210 -55
32 -134 41 -154 17z m1182 -379 c-1 -18 -2 -36 -3 -39 -2 -10 -30 -19 -108
-34 -40 -8 -88 -21 -107 -30 -21 -10 -40 -13 -49 -8 -27 16 -187 135 -187 139
0 2 103 4 228 4 l228 0 -2 -32z m-359 -106 c44 -32 80 -62 79 -68 -1 -13 -104
-64 -131 -64 -15 0 -26 8 -32 23 -10 25 -11 167 -2 167 3 0 42 -27 86 -58z"/>
<path d="M5647 1465 c-50 -17 -87 -52 -87 -81 0 -16 27 -47 85 -100 127 -115
149 -161 101 -209 -27 -26 -82 -41 -122 -31 -14 4 -47 27 -73 51 -42 39 -50
43 -65 32 -17 -12 -16 -15 11 -47 88 -107 199 -147 297 -106 48 20 86 74 86
121 0 35 -8 46 -100 137 -55 54 -100 105 -100 113 0 7 10 21 22 29 19 14 68
16 330 16 l308 0 0 -50 0 -50 -169 0 c-144 0 -170 -2 -175 -16 -19 -49 121
-181 155 -147 6 6 11 23 12 39 l2 29 88 3 c66 2 87 0 88 -10 0 -7 0 -56 -1
-109 l-1 -97 56 -32 c31 -18 59 -30 62 -27 3 3 5 109 4 236 l0 231 274 0 275
0 0 -71 c0 -53 -3 -68 -12 -63 -7 5 -35 24 -62 43 -47 34 -54 36 -130 36 -96
0 -166 -28 -197 -79 -25 -41 -24 -73 4 -118 65 -107 218 -148 338 -90 25 12
49 22 52 22 4 0 7 -15 6 -32 -3 -58 0 -63 56 -91 31 -15 58 -27 60 -27 3 0 5
106 5 235 l0 235 138 0 138 0 0 -74 c-1 -41 -4 -78 -8 -82 -4 -4 -28 -1 -53 6
-49 14 -75 4 -75 -29 0 -9 65 -81 145 -161 143 -143 144 -144 165 -125 20 18
20 19 -62 96 l-83 77 40 35 40 35 3 111 4 111 284 0 284 0 0 -42 0 -43 -96 1
c-121 1 -178 -9 -219 -41 -59 -44 -52 -105 22 -207 80 -110 108 -137 129 -125
11 5 21 11 23 13 2 2 -15 25 -37 52 -46 55 -62 89 -62 133 0 68 40 89 168 89
l73 0 -2 -120 c-2 -65 -1 -121 1 -123 7 -7 109 -57 115 -57 3 0 5 106 5 235
l0 235 60 0 c33 0 60 3 60 6 0 3 -12 23 -27 45 l-28 39 -1295 -1 c-1071 0
-1302 -2 -1333 -14z m1270 -230 c28 -8 62 -24 75 -34 l23 -20 -75 -35 c-138
-63 -209 -70 -232 -21 -8 18 -8 32 2 56 27 64 104 84 207 54z"/>
<path d="M11360 1474 c0 -3 12 -23 28 -45 l27 -39 318 0 317 0 0 -85 0 -85
-47 -35 c-27 -19 -81 -52 -121 -72 -141 -71 -229 -36 -143 56 32 35 85 51 165
51 l59 0 -36 43 -35 42 -201 1 c-110 0 -201 -2 -201 -4 0 -2 12 -21 28 -43 23
-33 32 -39 65 -39 36 0 37 -1 31 -27 -7 -30 -7 -29 -5 -55 2 -29 63 -90 116
-114 71 -34 143 -32 221 5 33 16 71 41 83 57 l23 29 -7 -60 c-4 -33 -9 -63
-11 -66 -3 -6 106 -69 120 -69 3 0 6 106 6 235 l0 235 75 0 c41 0 75 3 75 8 0
4 -14 24 -31 45 l-30 37 -445 0 c-244 0 -444 -3 -444 -6z"/>
</g>
</svg>